<?xml version="1.0" encoding="utf-8"?>
<!-- Generator: Adobe Illustrator 20.1.0, SVG Export Plug-In . SVG Version: 6.00 Build 0)  -->
<svg version="1.1" id="Layer_1" xmlns:sketch="http://www.bohemiancoding.com/sketch/ns"
	 xmlns="http://www.w3.org/2000/svg" xmlns:xlink="http://www.w3.org/1999/xlink" x="0px" y="0px" viewBox="0 0 30.5 31.1"
	 style="enable-background:new 0 0 30.5 31.1;" xml:space="preserve">
<style type="text/css">
	.st0{fill:#3B5998;}
</style>
<g>
	<title>Group 2</title>
	<desc>Created with Sketch.</desc>
</g>
<g>
	<path class="st0" d="M25.5,0H5C2.2,0,0,2.2,0,5v21.1c0,2.8,2.2,5,5,5h20.5c2.8,0,5-2.2,5-5V5C30.5,2.2,28.2,0,25.5,0z M28.5,26.1
		c0,1.7-1.3,3-3,3H5c-1.7,0-3-1.3-3-3V5c0-1.7,1.3-3,3-3h20.5c1.7,0,3,1.3,3,3V26.1z"/>
	<path class="st0" d="M19.1,7l-2.3,0c-2.6,0-4.2,1.7-4.2,4.4v2h-2.3c-0.2,0-0.4,0.2-0.4,0.4v3c0,0.2,0.2,0.4,0.4,0.4h2.3v7.5
		c0,0.2,0.2,0.4,0.4,0.4h3c0.2,0,0.4-0.2,0.4-0.4v-7.5H19c0.2,0,0.4-0.2,0.4-0.4l0-3c0-0.1,0-0.2-0.1-0.3c-0.1-0.1-0.2-0.1-0.3-0.1
		h-2.7v-1.7c0-0.8,0.2-1.3,1.3-1.3l1.5,0c0.2,0,0.4-0.2,0.4-0.4V7.4C19.5,7.2,19.3,7,19.1,7z"/>
</g>
</svg>
