<?xml version="1.0" encoding="utf-8"?>
<!-- Generator: Adobe Illustrator 20.1.0, SVG Export Plug-In . SVG Version: 6.00 Build 0)  -->
<svg version="1.1" id="Layer_1" xmlns:sketch="http://www.bohemiancoding.com/sketch/ns"
	 xmlns="http://www.w3.org/2000/svg" xmlns:xlink="http://www.w3.org/1999/xlink" x="0px" y="0px" viewBox="0 0 30.5 31.2"
	 style="enable-background:new 0 0 30.5 31.2;" xml:space="preserve">
<style type="text/css">
	.st0{fill:url(#XMLID_2_);}
	.st1{fill:url(#XMLID_3_);}
	.st2{fill:url(#XMLID_4_);}
</style>
<g id="XMLID_13_">
	<g>
		
			<linearGradient id="XMLID_2_" gradientUnits="userSpaceOnUse" x1="15.2558" y1="37.0375" x2="15.2558" y2="6.2026" gradientTransform="matrix(1 0 0 1 0 -6)">
			<stop  offset="0" style="stop-color:#E09B3D"/>
			<stop  offset="0.3" style="stop-color:#C74C4D"/>
			<stop  offset="0.6" style="stop-color:#C21975"/>
			<stop  offset="1" style="stop-color:#7024C4"/>
		</linearGradient>
		<path id="XMLID_17_" class="st0" d="M25.3,0H5.1C2.3,0,0,2.3,0,5.1V26c0,2.8,2.3,5.1,5.1,5.1h20.5c2.7,0,4.8-2.2,4.8-4.8V5.2
			C30.5,2.3,28.2,0,25.3,0z M28.5,26c0,1.7-1.4,3-3,3H5.1c-1.6,0-3-1.3-3-3V4.9c0-1.5,1-3,2.5-3h21.1c1.4,0,2.7,1.3,2.7,2.7L28.5,26
			z"/>
		
			<linearGradient id="XMLID_3_" gradientUnits="userSpaceOnUse" x1="15.5084" y1="37.7024" x2="15.5084" y2="6.2921" gradientTransform="matrix(1 0 0 1 0 -6)">
			<stop  offset="0" style="stop-color:#E09B3D"/>
			<stop  offset="0.3" style="stop-color:#C74C4D"/>
			<stop  offset="0.6" style="stop-color:#C21975"/>
			<stop  offset="1" style="stop-color:#7024C4"/>
		</linearGradient>
		<path id="XMLID_81_" class="st1" d="M18.7,8.3C11.8,5.7,5.3,12.2,7.9,19.1c0.8,2,2.4,3.7,4.4,4.4c6.9,2.6,13.4-3.9,10.8-10.8
			C22.3,10.7,20.7,9.1,18.7,8.3z M18,20.3c-4.6,2.3-9.2-2.3-6.9-6.9c0.4-0.8,1.1-1.5,1.9-1.9c4.6-2.3,9.2,2.3,6.9,6.9
			C19.5,19.2,18.8,19.9,18,20.3z"/>
		
			<linearGradient id="XMLID_4_" gradientUnits="userSpaceOnUse" x1="23.7356" y1="37.7025" x2="23.7356" y2="6.292" gradientTransform="matrix(1 0 0 1 0 -6)">
			<stop  offset="0" style="stop-color:#E09B3D"/>
			<stop  offset="0.3" style="stop-color:#C74C4D"/>
			<stop  offset="0.6" style="stop-color:#C21975"/>
			<stop  offset="1" style="stop-color:#7024C4"/>
		</linearGradient>
		<circle id="XMLID_83_" class="st2" cx="23.7" cy="7.8" r="2"/>
	</g>
</g>
<image style="overflow:visible;" width="820" height="722" xlink:href="Screen Shot 2017-08-10 at 17.26.32.png"  transform="matrix(4.236397e-02 0 0 4.236397e-02 51.5 17.4178)">
</image>
</svg>
