<?xml version="1.0" encoding="utf-8"?>
<!-- Generator: Adobe Illustrator 20.1.0, SVG Export Plug-In . SVG Version: 6.00 Build 0)  -->
<svg version="1.1" id="Layer_1" xmlns:sketch="http://www.bohemiancoding.com/sketch/ns"
	 xmlns="http://www.w3.org/2000/svg" xmlns:xlink="http://www.w3.org/1999/xlink" x="0px" y="0px" viewBox="0 0 30.5 31.2"
	 style="enable-background:new 0 0 30.5 31.2;" xml:space="preserve">
<style type="text/css">
	.st0{fill:#0077B5;}
</style>
<title>Group 5</title>
<desc>Created with Sketch.</desc>
<g>
	<rect x="7" y="12.6" class="st0" width="3.8" height="11.5"/>
	<path class="st0" d="M20.1,12.3c-0.5,0-0.9,0.1-1.3,0.2c-0.4,0.1-0.7,0.3-1,0.5c-0.3,0.2-0.5,0.4-0.7,0.6c-0.2,0.2-0.3,0.4-0.5,0.6
		v-1.6h-3.8l0,0.6c0,0.4,0,1.5,0,3.4c0,1.9,0,4.4,0,7.5h3.8v-6.4c0-0.4,0-0.7,0.1-0.9c0.2-0.4,0.4-0.7,0.7-1
		c0.3-0.3,0.7-0.4,1.2-0.4c0.7,0,1.2,0.2,1.5,0.7c0.3,0.5,0.5,1.1,0.5,1.9V24h3.8v-6.6c0-1.7-0.4-3-1.2-3.8
		C22.5,12.7,21.4,12.3,20.1,12.3z"/>
	<path class="st0" d="M8.9,7C8.2,7,7.7,7.2,7.3,7.6C6.9,8,6.7,8.5,6.7,9c0,0.6,0.2,1,0.6,1.4C7.7,10.8,8.2,11,8.8,11h0
		c0.6,0,1.2-0.2,1.6-0.6C10.8,10.1,11,9.6,11,9c0-0.6-0.2-1-0.6-1.4C10,7.2,9.5,7,8.9,7z"/>
	<path class="st0" d="M25.5,0H5C2.3,0,0,2.3,0,5v21.1c0,2.8,2.2,5,5,5h20.5c2.8,0,5-2.2,5-5V5C30.5,2.3,28.2,0,25.5,0z M28.5,26.2
		c0,1.7-1.3,3-3,3H5c-1.7,0-3-1.3-3-3V5c0-1.7,1.3-3,3-3h20.5c1.7,0,3,1.3,3,3V26.2z"/>
</g>
</svg>
