<?xml version="1.0" encoding="utf-8"?>
<!-- Generator: Adobe Illustrator 19.2.1, SVG Export Plug-In . SVG Version: 6.00 Build 0)  -->
<svg version="1.1" id="Layer_1" xmlns="http://www.w3.org/2000/svg" xmlns:xlink="http://www.w3.org/1999/xlink" x="0px" y="0px"
	 viewBox="0 0 248.2 34.8" enable-background="new 0 0 248.2 34.8" xml:space="preserve">
<g>
	<polygon fill-rule="evenodd" clip-rule="evenodd" fill="#00F7E2" points="161.5,5 165.8,2.5 168.3,4 170.9,5.4 176,8.4 173.4,10.5 
		170.9,11.3 165.8,8.4 170.9,5.4 165.8,8.4 165.8,8.4 165.8,8.4 165.8,8.4 161.5,5.9 161.5,5 	"/>
	<polygon fill-rule="evenodd" clip-rule="evenodd" fill="#00F7E2" points="161.5,5 165.8,2.5 161.5,0 161.5,5 	"/>
	<path fill-rule="evenodd" clip-rule="evenodd" fill="#04A7ED" d="M160.7,23.1v-5l0,0l-4.3,2.5L160.7,23.1L160.7,23.1z M160.7,18.1
		l0,5l4.3-2.5L160.7,18.1L160.7,18.1z"/>
	<polygon fill-rule="evenodd" clip-rule="evenodd" fill="#00F7B9" points="165.8,19.2 165.8,14.2 161.5,11.8 161.5,16.7 165.8,19.2 
			"/>
	<polygon fill-rule="evenodd" clip-rule="evenodd" fill="#00DDFF" points="159.9,11.8 155.6,14.2 155.6,19.2 159.9,16.7 159.9,11.8 
			"/>
	<polygon fill-rule="evenodd" clip-rule="evenodd" fill="#00DDFF" points="159.9,5.9 150.5,11.3 147.6,10.6 145.4,8.4 159.9,0 
		159.9,5.9 	"/>
	<polygon fill-rule="evenodd" clip-rule="evenodd" fill="#03C2ED" points="150.5,22.1 150.5,11.3 145.4,8.4 145.4,25.1 150.5,22.1 	
		"/>
	<polygon fill-rule="evenodd" clip-rule="evenodd" fill="#04A7ED" points="151.3,23.5 160.7,28.9 161.3,31.6 160.7,34.8 146.2,26.4 
		151.3,23.5 	"/>
	<polygon fill-rule="evenodd" clip-rule="evenodd" fill="#04B4F0" points="170.1,23.5 160.7,28.9 160.7,34.8 175.2,26.4 170.1,23.5 
			"/>
	<polygon fill-rule="evenodd" clip-rule="evenodd" fill="#00F7B9" points="170.9,22.1 170.9,11.3 176,8.4 176,25.1 170.9,22.1 	"/>
	<path fill-rule="evenodd" clip-rule="evenodd" fill="#152A47" d="M0,27.3h3.8v-8.9h11v-3.5h-11V9h12.4V5.5H0V27.3L0,27.3z
		 M20.5,27.3h3.8v-7.6h4.8l5.4,7.6h4.5l-5.9-8.3c3.1-0.9,5.2-3,5.2-6.6v-0.1c0-1.9-0.7-3.5-1.8-4.7c-1.4-1.4-3.6-2.2-6.3-2.2h-9.8
		V27.3L20.5,27.3z M24.3,16.3V9h5.6c2.8,0,4.5,1.3,4.5,3.6v0.1c0,2.2-1.8,3.7-4.5,3.7H24.3L24.3,16.3z M43.1,27.3h16.4v-3.4H46.9V18
		h11v-3.4h-11V8.9h12.4V5.5H43.1V27.3L43.1,27.3z M64.3,27.3h3.8V5.5h-3.8V27.3L64.3,27.3z M84.3,27.7c3.9,0,7-1.6,9.1-3.4v-9.2
		h-9.3v3.3h5.6v4.1c-1.3,1-3.2,1.7-5.3,1.7c-4.5,0-7.4-3.3-7.4-7.8v-0.1c0-4.2,3.1-7.7,7.1-7.7c2.8,0,4.4,0.9,6.1,2.3l2.4-2.9
		c-2.3-1.9-4.6-3-8.4-3C77.7,5.1,73,10.3,73,16.4v0.1C73,22.8,77.5,27.7,84.3,27.7L84.3,27.7z M98.5,27.3h3.8v-9.2h10.4v9.2h3.8V5.5
		h-3.8v9.1h-10.4V5.5h-3.8V27.3L98.5,27.3z M127.6,27.3h3.9V9h6.9V5.5h-17.8V9h6.9V27.3L127.6,27.3z"/>
	<path fill-rule="evenodd" clip-rule="evenodd" fill="#152A47" d="M183.1,27.2h2.5v-9.8h12.6v9.8h2.5V5.3h-2.5V15h-12.6V5.3h-2.5
		V27.2L183.1,27.2z M215.6,27.5c5.5,0,9.1-3.3,9.1-9.7V5.3h-2.5V18c0,4.8-2.6,7.2-6.6,7.2c-4.2,0-6.7-2.7-6.7-7.4V5.3h-2.5V18
		C206.5,24.2,210.2,27.5,215.6,27.5L215.6,27.5z M230.6,27.2h9.7c4.8,0,7.9-2.2,7.9-6v-0.1c0-3-2.1-4.5-4.7-5.3
		c1.7-0.8,3.5-2.2,3.5-5.1v-0.1c0-1.4-0.5-2.6-1.4-3.5c-1.3-1.2-3.2-1.9-5.7-1.9h-9.3V27.2L230.6,27.2z M233,15V7.5h6.7
		c3.1,0,4.8,1.4,4.8,3.6v0.1c0,2.6-2.1,3.9-5,3.9H233L233,15z M233,25v-7.7h6.9c3.8,0,5.8,1.4,5.8,3.8V21c0,2.4-2.1,3.9-5.4,3.9H233
		L233,25z"/>
</g>
</svg>
